{"title":"The X Factor Au - S08E05","uid":16004961,"size":399771952,"categoryP":"video","categoryS":"tv_shows","magnet":"?xt=urn:btih:b520bac6dec07b97ad426c8c00fcc09c4f64282d&amp;dn=The+X+Factor+Au+-+S08E05&amp;tr=udp%3A%2F%2Ftracker.leechers-paradise.org%3A6969&amp;tr=udp%3A%2F%2Fzer0day.ch%3A1337&amp;tr=udp%3A%2F%2Fopen.demonii.com%3A1337&amp;tr=udp%3A%2F%2Ftracker.coppersurfer.tk%3A6969&amp;tr=udp%3A%2F%2Fexodus.desync.com%3A6969","seeders":29,"leechers":3,"uploader":"Bullrout","files":1,"time":1476166924,"description":"The X Factor Au - S08E05\r\n\r\nIt's the penultimate night of auditions at The X Factor and with the judges settled in they hold no punches. Iggy and Guy lock horns over one act, then see the most shocking audition ever.\r\n\r\nComplete name : The X Factor Au - S08E05.mp4\r\nFormat : MPEG-4\r\nFormat profile : Base Media / Version 2\r\nCodec ID : mp42 (mp42/isom/avc1)\r\nFile size : 381 MiB\r\nDuration : 48 min 4 s\r\nOverall bit rate mode : Variable\r\nOverall bit rate : 1 109 kb/s\r\n\r\nVideo\r\nID : 2\r\nFormat : AVC\r\nFormat/Info : Advanced Video Codec\r\nFormat profile :   \r\nFormat settings, CABAC : Yes\r\nFormat settings, ReFrames : 3 frames\r\nCodec ID : avc1\r\nCodec ID/Info : Advanced Video Coding\r\nDuration : 48 min 4 s\r\nBit rate mode : Variable\r\nBit rate : 977 kb/s\r\nMaximum bit rate : 1 000 kb/s\r\nWidth : 720 pixels\r\nHeight : 404 pixels\r\nDisplay aspect ratio : 16:9\r\nOriginal display aspect ratio : 16:9\r\nFrame rate mode : Constant\r\nFrame rate : 25.000 FPS\r\nStandard : PAL\r\nColor space : YUV\r\nChroma subsampling : 4:2:0\r\nBit depth : 8 bits\r\nScan type : Progressive\r\nBits/(Pixel*Frame) : 0.134\r\nStream size : 336 MiB (88%)\r\nWriting library : x264 core 112\r\nColor range : Limited\r\nColor primaries : BT.601 PAL\r\nTransfer characteristics : BT.470 System B, BT.470 System G\r\nMatrix coefficients : BT.601\r\n\r\nAudio\r\nID : 1\r\nFormat : AAC\r\nFormat/Info : Advanced Audio Codec\r\nFormat profile : LC\r\nCodec ID : 40\r\nDuration : 48 min 4 s\r\nBit rate mode : Variable\r\nBit rate : 128 kb/s\r\nMaximum bit rate : 576 kb/s\r\nChannel(s) : 2 channels\r\nChannel positions : Front: L R\r\nSampling rate : 48.0 kHz\r\nFrame rate : 46.875 FPS (1024 spf)\r\nCompression mode : Lossy\r\nStream size : 44.0 MiB (12%)","torrent":{"xt":"urn:btih:b520bac6dec07b97ad426c8c00fcc09c4f64282d","amp;dn":"The+X+Factor+Au+-+S08E05","amp;tr":["udp%3A%2F%2Ftracker.leechers-paradise.org%3A6969","udp%3A%2F%2Fzer0day.ch%3A1337","udp%3A%2F%2Fopen.demonii.com%3A1337","udp%3A%2F%2Ftracker.coppersurfer.tk%3A6969","udp%3A%2F%2Fexodus.desync.com%3A6969"],"infoHash":"b520bac6dec07b97ad426c8c00fcc09c4f64282d","infoHashBuffer":{"type":"Buffer","data":[181,32,186,198,222,192,123,151,173,66,108,140,0,252,192,156,79,100,40,45]},"announce":[],"urlList":[]}}